<svg width="1366" height="21" viewBox="0 0 1366 21" fill="none" xmlns="http://www.w3.org/2000/svg">
<path d="M1592 4L1566.5 11.7643C1555.3 15.1725 1543.33 15.0634 1532.2 11.4517L1524.11 8.82938C1514.37 5.66792 1503.96 5.18218 1493.96 7.42294L1465.21 13.8675C1456.04 15.9241 1446.5 15.6867 1437.44 13.1763L1417.6 7.67915C1408.87 5.261 1399.69 4.95061 1390.82 6.77355L1352.47 14.6544C1344.94 16.2022 1337.17 16.2148 1329.63 14.6913L1290.32 6.74589C1281.39 4.94142 1272.16 5.29582 1263.4 7.77955L1244.3 13.1937C1235.47 15.6945 1226.18 16.0364 1217.2 14.1905L1179.75 6.49609C1171.75 4.85115 1163.48 4.94126 1155.51 6.76035L1122.9 14.206C1114.84 16.0467 1106.48 16.1168 1098.38 14.4114L1063.58 7.07556C1054.01 5.05892 1044.08 5.52993 1034.75 8.44359L1022.64 12.2237C1012.63 15.3477 1001.95 15.6597 991.781 13.1256L968.894 7.42499C959.863 5.17569 950.42 5.1646 941.384 7.39271L914.872 13.9301C906.675 15.9516 898.131 16.1325 889.855 14.4597L854.13 7.23897C843.656 5.12207 832.799 5.98225 822.789 9.72196L821.88 10.0616C809.851 14.556 796.659 14.8702 784.429 10.9538L777.45 8.71875C767.8 5.62849 757.502 5.15795 747.611 7.35533L717.561 14.0309C708.775 15.9827 699.652 15.833 690.935 13.5939L667.885 7.67316C658.505 5.2639 648.667 5.27636 639.294 7.7094L617.439 13.3821C608.29 15.757 598.694 15.8265 589.511 13.5846L567.83 8.29116C556.397 5.49978 544.378 6.3369 533.442 10.6863V10.6863C523.089 14.8039 511.752 15.7787 500.848 13.4888L470.16 7.04411C460.653 5.04765 450.795 5.50604 441.514 8.37605L428.364 12.4429C418.712 15.4276 408.443 15.8021 398.6 13.5283L373.762 7.79056C363.051 5.31607 351.868 6.08781 341.157 8.56432C326.916 11.857 310.405 14.3806 300.31 15.777C294.086 16.6379 287.776 16.3249 281.634 15.0017L242.892 6.65534C234.773 4.90613 226.37 4.94674 218.268 6.77438L186.261 13.9942C177.501 15.9703 168.399 15.8553 159.692 13.6585L133.601 7.07608C125.568 5.04957 117.191 4.79266 109.05 6.32311L64.058 14.7807C56.2721 16.2442 48.2671 16.0739 40.5505 14.2806L8.20381 6.76302C0.366226 4.94152 -7.76755 4.79472 -15.6657 6.33221L-58.4647 14.6636C-66.3768 16.2038 -74.5253 16.0537 -82.3754 14.2232L-114.958 6.62531C-122.389 4.89263 -130.091 4.66457 -137.611 5.95457L-202 17" stroke="#E9F5FF" stroke-width="7.62395"/>
</svg>
